<svg id="Layer_1" data-name="Layer 1" xmlns="http://www.w3.org/2000/svg" xmlns:xlink="http://www.w3.org/1999/xlink" viewBox="0 0 1280 720">
  <defs>
    <style>
      .cls-1 {
        filter: url(#luminosity-noclip);
      }

      .cls-2 {
        mask: url(#mask);
      }

      .cls-3 {
        fill: #fff;
      }
    </style>
    <filter id="luminosity-noclip" x="0" y="0" width="1280" height="720" filterUnits="userSpaceOnUse" color-interpolation-filters="sRGB">
      <feFlood flood-color="#fff" result="bg"/>
      <feBlend in="SourceGraphic" in2="bg"/>
    </filter>
    <mask id="mask" x="0" y="0" width="1280" height="720" maskUnits="userSpaceOnUse">
      <g class="cls-1">
        <path d="M113.53711,190.19077H227.75584v51.329H163.47916v89.24743h46.24238V385.333H163.47916v93.40941h64.27668v51.329H113.53711Z"/>
        <path d="M289.71812,530.07137H240.70183l55.0281-178.49486L241.62647,190.19077h49.01685l27.28289,86.01064,1.38695,4.162H321.163l1.38751-4.162,27.28289-86.01064h49.01685l-54.104,161.38574,55.02866,178.49486H350.758l-28.6704-101.27048-.92463-4.16255h-1.84983l-.92464,4.16255Z"/>
        <path d="M421.9672,190.19077h49.94148c21.734,0,43.46792,5.54892,60.11471,21.27164,16.64678,15.72215,27.74576,41.61809,27.74576,80.46115,0,38.84363-11.099,64.27725-27.74576,79.9994s-38.38075,22.19684-60.11471,22.19684V530.07137H421.9672Zm49.94148,153.06179c15.25927,0,24.97074-2.77447,30.51967-10.63554,5.54893-7.39933,6.93644-19.8847,6.93644-38.84419s-1.38751-32.3695-6.93644-40.69346c-5.54893-8.32283-15.2604-12.02192-30.51967-12.02192Z"/>
        <path d="M584.73764,190.19077h49.94148V483.82842h66.12652v46.243h-116.068Z"/>
        <path d="M851.09409,460.24632c-.46288,13.87175-3.23791,26.35712-8.324,36.99323a63.629,63.629,0,0,1-19.8847,24.97074c-9.24859,7.39819-21.734,11.56074-38.38074,11.56074s-29.595-4.16255-38.84363-11.56074c-9.24859-6.93644-15.25927-15.72328-19.42181-24.97074-5.086-10.63611-7.86108-23.12148-8.32283-36.99323V260.01638c.46175-13.41,3.23678-25.89538,8.32283-36.53092,4.16254-9.24859,10.17322-18.49718,19.42181-25.43362,9.24859-6.93588,22.19684-11.56017,38.84363-11.56017s29.13215,4.62429,38.38074,11.56017a64.92188,64.92188,0,0,1,19.8847,25.43362c5.086,10.63554,7.86107,23.12091,8.324,36.53092ZM801.15148,260.01638c0-9.248-1.84926-15.72215-6.47356-21.27108a14.39593,14.39593,0,0,0-10.17322-3.69966c-8.78571,0-12.94825,6.47412-14.79752,12.48537a35.43552,35.43552,0,0,0-1.84927,12.48537V460.24632c0,9.71034,2.31215,16.1839,6.93644,21.26995a13.2468,13.2468,0,0,0,9.71035,3.70079c8.78571,0,12.94825-5.55006,14.79752-12.4865,1.38751-3.23678,1.84926-7.3982,1.84926-12.48424Z"/>
        <path d="M974.09515,530.07137,948.19977,386.72048h-13.41V530.07137H884.84829V190.19077h49.94148c59.65182,0,85.08544,33.757,85.08544,98.03369,0,33.757-8.7857,64.27669-27.74464,77.22438l31.90606,164.62253ZM934.78977,340.47809c6.93644,0,16.185-.92463,23.58322-7.39876,7.39933-6.47356,13.41-18.95949,13.41-43.005,0-24.0461-6.01068-36.99379-13.41-43.46792-7.39819-6.47412-16.64678-6.93644-23.58322-6.93644Z"/>
        <path d="M1051.7824,190.19077H1166v51.329h-64.27612v89.24743h46.24182V385.333h-46.24182v93.40941H1166v51.329H1051.7824Z"/>
      </g>
    </mask>
  </defs>
  <title>Explore_Mask</title>
  <g class="cls-2">
    <rect class="cls-3" width="1280" height="720"/>
  </g>
</svg>
