<svg xmlns="http://www.w3.org/2000/svg" viewBox="0 0 512 512"><defs><style>.cls-1{fill:#cecece;}</style></defs><g id="Campfire"><path id="fire-3" class="cls-1" d="M352.5,383.5l-74-132-29,15,14,34s45.5,101.5,51,100S352.5,383.5,352.5,383.5Z"/><path id="fire-2" class="cls-1" d="M264.5,313.5l-22,83s-17.5,3.5-25,4-23,0-23,0l44-133h6l20,42Z"/><path id="fire-1" class="cls-1" d="M296.5,275.5s21-25,21-50-49-45-43-66a291.39,291.39,0,0,0,8-35s-17,16-18,35-19,10-15-3-9-20-9-20,5,13,0,23-12,19-6,30-19,23-26,40-9,42,4,46,18,3,18,3l5-14,14-2,30-15Z"/></g><g id="Tent"><path id="tent-3" class="cls-1" d="M176.5,364.5l52-62-111-152s2.5,32.5,6,42S176.5,364.5,176.5,364.5Z"/><path id="tent-2" class="cls-1" d="M182.5,367.5l36,14,266-107s-85.5-163.5-85-164c-10.4,9.87-229,43.43-276,40l114,153Z"/><path id="tent-1" class="cls-1" d="M55.5,295.5l59-130s13.5,169.5,6,165S55.5,295.5,55.5,295.5Z"/></g><g id="Backpack"><path id="backpack-3" class="cls-1" d="M199.5,140.5s7-8,17-8,27,15,34,15,41-30,71-30c22,0,27,7,27,7s-8-32-14-44-13-16-22-18-31-2-57,0-34,16-42,22-14,19-14,25Z"/><path id="backpack-2" class="cls-1" d="M199.5,166.5s-8-3-15,0-15,18-15,18-4,5-4,19,14,53,20,72,22,45,22,45v-11s-12.29-16.33-15-38c-3-24-1-53-3-62s-9-23-3-28,13,3,13,3Z"/><path id="backpack-1" class="cls-1" d="M211.5,377.5c-4-3,0-81,0-81s5-37,3-59-11-53-11-53l-4-37s10-10,18-8,24,15,33,16,52-32,72-32,31,7,31,7,18,37,18,85-9,80-9,80,1,23,0,42-8,27-14,29-61,23-75,23S215.5,380.5,211.5,377.5Z"/></g></svg>